HIERARCHY
ROOT Hips
{
 OFFSET 0.000000 0.000000 0.000000
 CHANNELS 6 Xposition Yposition Zposition Yrotation Xrotation Zrotation
 JOINT Chest
 {
  OFFSET 0.000000 9.585900 0.002600
  CHANNELS 3 Yrotation Xrotation Zrotation
  JOINT Chest2
  {
   OFFSET 0.000000 9.601200 -0.005300
   CHANNELS 3 Yrotation Xrotation Zrotation
   JOINT Chest3
   {
    OFFSET 0.000000 9.561800 0.000000
    CHANNELS 3 Yrotation Xrotation Zrotation
    JOINT Chest4
    {
     OFFSET 0.000000 9.552100 0.000000
     CHANNELS 3 Yrotation Xrotation Zrotation
     JOINT Neck
     {
      OFFSET 0.000000 14.453000 0.000000
      CHANNELS 3 Yrotation Xrotation Zrotation
      JOINT Head
      {
       OFFSET 0.000000 8.936500 -0.011300
       CHANNELS 3 Yrotation Xrotation Zrotation
       End Site
       {
        OFFSET 0.000000 17.073600 -0.006000
       }
      }
     }
     JOINT RightCollar
     {
      OFFSET -2.921100 9.558500 0.000000
      CHANNELS 3 Yrotation Xrotation Zrotation
      JOINT RightShoulder
      {
       OFFSET -13.519700 0.000000 0.000000
       CHANNELS 3 Yrotation Xrotation Zrotation
       JOINT RightElbow
       {
        OFFSET 0.000000 -29.696600 0.000000
        CHANNELS 3 Yrotation Xrotation Zrotation
        JOINT RightWrist
        {
         OFFSET 0.000000 -24.004700 0.000000
         CHANNELS 3 Yrotation Xrotation Zrotation
         End Site
         {
          OFFSET 0.000000 -17.728500 0.000000
         }
        }
       }
      }
     }
     JOINT LeftCollar
     {
      OFFSET 2.921100 9.558500 0.000000
      CHANNELS 3 Yrotation Xrotation Zrotation
      JOINT LeftShoulder
      {
       OFFSET 13.519700 0.000000 0.000000
       CHANNELS 3 Yrotation Xrotation Zrotation
       JOINT LeftElbow
       {
        OFFSET 0.000000 -29.696600 0.000000
        CHANNELS 3 Yrotation Xrotation Zrotation
        JOINT LeftWrist
        {
         OFFSET 0.000000 -24.004700 0.000000
         CHANNELS 3 Yrotation Xrotation Zrotation
         End Site
         {
          OFFSET 0.000000 -17.728500 0.000000
         }
        }
       }
      }
     }
    }
   }
  }
 }
 JOINT RightHip
 {
  OFFSET -7.771700 -0.012900 -0.001300
  CHANNELS 3 Yrotation Xrotation Zrotation
  JOINT RightKnee
  {
   OFFSET 0.000000 -40.869800 0.001200
   CHANNELS 3 Yrotation Xrotation Zrotation
   JOINT RightAnkle
   {
    OFFSET 0.000000 -39.717900 0.002100
    CHANNELS 3 Yrotation Xrotation Zrotation
    JOINT RightToe
    {
     OFFSET 0.000000 -4.965400 11.033500
     CHANNELS 3 Yrotation Xrotation Zrotation
     End Site
     {
      OFFSET 0.000000 -1.423100 5.872300
     }
    }
   }
  }
 }
 JOINT LeftHip
 {
  OFFSET 7.771700 -0.012900 -0.001300
  CHANNELS 3 Yrotation Xrotation Zrotation
  JOINT LeftKnee
  {
   OFFSET 0.000000 -40.869800 0.001200
   CHANNELS 3 Yrotation Xrotation Zrotation
   JOINT LeftAnkle
   {
    OFFSET 0.000000 -39.717900 0.002100
    CHANNELS 3 Yrotation Xrotation Zrotation
    JOINT LeftToe
    {
     OFFSET 0.000000 -4.965400 11.033500
     CHANNELS 3 Yrotation Xrotation Zrotation
     End Site
     {
      OFFSET 0.000000 -1.423100 5.872300
     }
    }
   }
  }
 }
}
MOTION
Frames: 13
Frame Time: 0.008333
0.000000 85.388000 0.000000 0.000000 -5.767877 0.000000 0.000000 11.653817 0.000000 0.000000 -5.885947 0.000000 0.000000 -0.000000 0.000000 0.000000 -0.000000 0.000000 0.000000 12.528835 0.000000 0.000000 0.711642 0.000000 0.000000 -0.000000 0.000000 0.000000 0.000000 -90.000000 0.000000 -2.309062 0.000000 0.000000 2.309062 0.000000 0.000000 -0.000000 0.000000 0.000000 -0.000000 90.000000 0.000000 -2.309062 0.000000 0.000000 2.309062 0.000000 0.000000 8.520406 0.000000 0.000000 1.905762 0.000000 -0.000000 -4.658285 0.000000 0.000000 -0.000000 0.000000 0.000000 8.520406 0.000000 0.000000 1.905762 0.000000 -0.000000 -4.658285 0.000000 0.000000 -0.000000 0.000000
-16.975724 57.829141 69.187366 -177.754539 -44.855368 -2.504407 -0.222360 26.328418 4.251682 -0.065559 4.532058 0.594109 -0.111349 7.181978 0.927238 0.008003 21.736101 2.856419 -2.645388 14.327242 -3.334513 -3.692824 -9.214502 -5.251762 2.324024 -0.349230 -1.999292 7.536206 -14.221893 -15.147273 158.612430 -69.606057 -136.518124 20.476915 -17.269790 -46.178904 -7.061252 -0.208191 -3.397674 7.351429 -8.088884 -3.948791 -147.494436 -61.732306 126.086340 -8.459197 -15.969499 30.983489 5.358981 -25.652255 -5.022337 -6.877783 64.538298 -8.532505 4.350098 8.304645 8.064467 -0.248164 0.778667 -0.041605 -9.555433 -31.736554 -0.660576 26.782443 57.232028 19.707414 -10.078273 36.708561 4.210680 0.225769 -15.586154 -4.620464
-16.980071 57.829468 69.182606 -177.721797 -44.868401 -2.508099 -0.221160 26.350252 4.258062 -0.065741 4.536700 0.591655 -0.110773 7.183816 0.926413 0.009422 21.738647 2.853604 -2.541390 14.330365 -3.331481 -3.498750 -9.206635 -5.285999 2.329668 -0.348728 -1.997640 7.554884 -14.229656 -15.168985 158.620352 -69.607119 -136.529412 20.475352 -17.267965 -46.175311 -7.073946 -0.215849 -3.390135 7.358903 -8.074596 -3.972182 -147.423544 -61.725873 126.036947 -8.451049 -15.951514 30.971829 5.349795 -25.628522 -5.042201 -6.881942 64.548193 -8.543494 4.347787 8.258988 8.072210 -0.261577 0.766402 -0.054242 -9.540532 -31.717019 -0.674805 26.743323 57.233115 19.661196 -10.101220 36.689543 4.197780 0.237488 -15.557618 -4.599717
-16.986947 57.828550 69.178759 -177.684858 -44.870419 -2.500210 -0.196342 26.378280 4.270765 -0.087148 4.527621 0.582935 -0.116949 7.182403 0.923535 0.012189 21.741942 2.850702 -2.438783 14.331974 -3.328448 -3.307225 -9.201512 -5.319616 2.343249 -0.344813 -1.993776 7.558858 -14.242559 -15.185902 158.603102 -69.605109 -136.508262 20.472569 -17.271449 -46.176405 -7.090844 -0.225274 -3.378714 7.375338 -8.055777 -3.993317 -147.380578 -61.724641 126.007799 -8.445365 -15.959414 30.954547 5.336679 -25.620495 -5.078462 -6.874267 64.566330 -8.550191 4.342566 8.219422 8.076712 -0.263910 0.748757 -0.063359 -9.525447 -31.710316 -0.706068 26.711845 57.229532 19.619517 -10.123499 36.669858 4.196817 0.249509 -15.527923 -4.589742
-16.992497 57.827521 69.175075 -177.665773 -44.869916 -2.487014 -0.196775 26.387897 4.259020 -0.094143 4.524859 0.580861 -0.116295 7.183976 0.923121 0.032848 21.758735 2.848900 -2.337573 14.332091 -3.326154 -3.118013 -9.199031 -5.353980 2.346599 -0.350289 -1.985760 7.570085 -14.249516 -15.203204 158.597609 -69.614096 -136.460510 20.487912 -17.260797 -46.201918 -7.096055 -0.223683 -3.371405 7.409371 -8.017233 -4.033278 -147.379836 -61.693540 125.988928 -8.447340 -16.000630 30.924397 5.329683 -25.614195 -5.102472 -6.863792 64.579013 -8.558597 4.333522 8.174298 8.082388 -0.275232 0.711048 -0.082606 -9.513175 -31.706556 -0.720140 26.721718 57.222538 19.599121 -10.146621 36.656982 4.213644 0.253021 -15.509091 -4.583040
-16.999800 57.828883 69.169282 -177.623619 -44.886941 -2.477745 -0.236897 26.409305 4.220952 -0.086107 4.529959 0.582519 -0.091483 7.204789 0.927889 0.011244 21.742980 2.846302 -2.223078 14.347635 -3.332067 -2.929302 -9.198141 -5.391205 2.363533 -0.340159 -1.984517 7.584326 -14.256694 -15.221922 158.587850 -69.622846 -136.464018 20.501481 -17.257669 -46.220322 -7.051760 -0.186020 -3.385125 7.401161 -8.012680 -4.052133 -147.396520 -61.669221 125.984599 -8.449609 -15.978802 30.929136 5.279198 -25.580432 -5.112811 -6.848219 64.590056 -8.606110 4.321678 8.085070 8.097272 -0.281919 0.742350 -0.085777 -9.515737 -31.688726 -0.749377 26.754251 57.216198 19.587683 -10.152566 36.647264 4.251715 0.243912 -15.495933 -4.579979
-16.999863 57.828573 69.165836 -177.592740 -44.885738 -2.499037 -0.223229 26.423260 4.247141 -0.085528 4.533202 0.582135 -0.085367 7.216102 0.928099 -0.009928 21.726794 2.843073 -2.173480 14.347050 -3.331262 -2.676605 -9.185979 -5.452572 2.377058 -0.329963 -1.983931 7.596431 -14.262577 -15.236908 158.578059 -69.626929 -136.476837 20.499921 -17.268205 -46.207286 -7.024478 -0.161161 -3.389206 7.404006 -8.007843 -4.071989 -147.439708 -61.635369 125.989519 -8.438670 -15.868203 31.010275 5.239669 -25.576340 -5.093480 -6.833829 64.598015 -8.627318 4.312919 8.051694 8.110927 -0.289232 0.739666 -0.092705 -9.547976 -31.686024 -0.714646 26.744866 57.224014 19.546623 -10.199609 36.632529 4.213641 0.269073 -15.476274 -4.552364
-17.001187 57.828117 69.163135 -177.566381 -44.881697 -2.503964 -0.220828 26.436068 4.252290 -0.084454 4.536239 0.582130 -0.081065 7.218426 0.927151 -0.006610 21.734401 2.844409 -2.042925 14.353410 -3.335652 -2.525456 -9.188711 -5.477865 2.374939 -0.335146 -1.980558 7.602266 -14.265690 -15.246371 158.563663 -69.617400 -136.495058 20.465040 -17.275568 -46.168634 -7.016528 -0.152641 -3.382919 7.415107 -8.001985 -4.096889 -147.371165 -61.664387 125.969506 -8.437612 -15.908480 30.982847 5.216275 -25.575323 -5.090912 -6.816427 64.607238 -8.641388 4.294730 8.021801 8.121066 -0.288618 0.749630 -0.091216 -9.562925 -31.691239 -0.716721 26.779186 57.217539 19.553600 -10.200646 36.636022 4.238601 0.257727 -15.474714 -4.551954
-17.000548 57.827098 69.161671 -177.554009 -44.871504 -2.504665 -0.171129 26.448982 4.284530 -0.107774 4.528746 0.577400 -0.092158 7.214512 0.923729 0.008849 21.749215 2.845883 -1.917810 14.359688 -3.336936 -2.376460 -9.189234 -5.501023 2.367459 -0.338524 -1.974933 7.602599 -14.265623 -15.253432 158.566331 -69.617120 -136.505344 20.483267 -17.277954 -46.192961 -7.012808 -0.140983 -3.373046 7.427603 -7.996201 -4.120243 -147.348989 -61.670375 125.975744 -8.436661 -15.916844 30.966895 5.207831 -25.581537 -5.091329 -6.794320 64.616326 -8.637893 4.289498 7.984873 8.123188 -0.299597 0.748299 -0.091445 -9.576928 -31.702156 -0.697056 26.802401 57.216382 19.539211 -10.218642 36.645659 4.251304 0.259333 -15.478165 -4.546028
-16.996576 57.827340 69.159573 -177.543043 -44.870802 -2.519407 -0.153872 26.455815 4.307580 -0.102795 4.533831 0.575060 -0.109700 7.205436 0.922866 0.062659 21.797266 2.845733 -1.846891 14.334507 -3.322075 -2.197998 -9.181416 -5.534652 2.330877 -0.371930 -1.958135 7.601127 -14.264766 -15.259418 158.592402 -69.637410 -136.512337 20.504639 -17.279570 -46.219121 -7.040191 -0.163097 -3.348083 7.450710 -7.976744 -4.139162 -147.347858 -61.664594 125.990739 -8.433150 -15.944723 30.939148 5.188498 -25.577385 -5.059657 -6.811874 64.615141 -8.679784 4.273585 7.961832 8.123292 -0.287374 0.743416 -0.090318 -9.594983 -31.699679 -0.666737 26.800236 57.218353 19.511469 -10.216749 36.650833 4.269178 0.258904 -15.478673 -4.547354
-16.994900 57.827168 69.158331 -177.505888 -44.866635 -2.535351 -0.177911 26.455321 4.301927 -0.082562 4.546548 0.581926 -0.109677 7.210688 0.921844 0.061084 21.799827 2.843999 -1.754654 14.338491 -3.321430 -2.025074 -9.171195 -5.568710 2.329524 -0.362399 -1.953460 7.583073 -14.291285 -15.263669 158.611637 -69.667543 -136.505586 20.517417 -17.277726 -46.237445 -7.055087 -0.177760 -3.337744 7.493585 -7.936856 -4.155545 -147.353119 -61.656050 126.009671 -8.426306 -15.970460 30.910736 5.163440 -25.576705 -5.050470 -6.832775 64.619127 -8.723936 4.256899 7.946052 8.129137 -0.277397 0.712065 -0.099698 -9.619289 -31.704137 -0.662778 26.796437 57.219466 19.488462 -10.216231 36.647629 4.287260 0.244709 -15.470746 -4.548271
-16.994372 57.826551 69.157854 -177.478150 -44.860236 -2.536604 -0.181093 26.460801 4.300032 -0.056324 4.563424 0.592282 -0.135534 7.197948 0.913378 0.049276 21.793812 2.842934 -1.655342 14.354693 -3.325484 -1.857815 -9.160561 -5.603465 2.345680 -0.328920 -1.952955 7.572366 -14.296238 -15.273299 158.632329 -69.674674 -136.526261 20.531673 -17.280097 -46.258199 -7.034041 -0.152603 -3.335593 7.510139 -7.924584 -4.171225 -147.362778 -61.647640 126.030075 -8.426486 -15.917806 30.928572 5.158449 -25.580536 -5.051380 -6.864939 64.629738 -8.782043 4.253046 7.921373 8.148946 -0.284267 0.705578 -0.102515 -9.627275 -31.708225 -0.661247 26.773882 57.215504 19.446081 -10.243758 36.655008 4.276575 0.257718 -15.466957 -4.537323
-16.994469 57.825110 69.158411 -177.461217 -44.848427 -2.527827 -0.172864 26.461376 4.301678 -0.071690 4.556283 0.586444 -0.097259 7.226169 0.926821 0.007219 21.770799 2.832265 -1.558490 14.367293 -3.327854 -1.695506 -9.150566 -5.637922 2.354396 -0.304529 -1.950430 7.565992 -14.293370 -15.276368 158.627850 -69.673100 -136.527825 20.520509 -17.263357 -46.253064 -6.966090 -0.083263 -3.341879 7.473412 -7.957679 -4.179716 -147.373993 -61.643481 126.050470 -8.424945 -15.899475 30.919144 5.181734 -25.592925 -5.060333 -6.939206 64.639761 -8.856940 4.224164 7.912745 8.147202 -0.257633 0.696651 -0.093170 -9.628007 -31.720888 -0.677102 26.781903 57.204443 19.431252 -10.210185 36.670381 4.336025 0.233670 -15.472768 -4.555528
